<svg id="visual" viewBox="0 0 960 540" width="960" height="540" xmlns="http://www.w3.org/2000/svg" xmlns:xlink="http://www.w3.org/1999/xlink" version="1.1"><rect x="0" y="0" width="960" height="540" fill="#001220"></rect><path d="M0 116L26.7 107.5C53.3 99 106.7 82 160 89.7C213.3 97.3 266.7 129.7 320 147.3C373.3 165 426.7 168 480 166.3C533.3 164.7 586.7 158.3 640 143.5C693.3 128.7 746.7 105.3 800 104.5C853.3 103.7 906.7 125.3 933.3 136.2L960 147L960 541L933.3 541C906.7 541 853.3 541 800 541C746.7 541 693.3 541 640 541C586.7 541 533.3 541 480 541C426.7 541 373.3 541 320 541C266.7 541 213.3 541 160 541C106.7 541 53.3 541 26.7 541L0 541Z" fill="#c62368"></path><path d="M0 194L26.7 193.7C53.3 193.3 106.7 192.7 160 201.2C213.3 209.7 266.7 227.3 320 239.7C373.3 252 426.7 259 480 250.3C533.3 241.7 586.7 217.3 640 219C693.3 220.7 746.7 248.3 800 254.8C853.3 261.3 906.7 246.7 933.3 239.3L960 232L960 541L933.3 541C906.7 541 853.3 541 800 541C746.7 541 693.3 541 640 541C586.7 541 533.3 541 480 541C426.7 541 373.3 541 320 541C266.7 541 213.3 541 160 541C106.7 541 53.3 541 26.7 541L0 541Z" fill="#da3f67"></path><path d="M0 291L26.7 308.5C53.3 326 106.7 361 160 367.3C213.3 373.7 266.7 351.3 320 344.3C373.3 337.3 426.7 345.7 480 336.3C533.3 327 586.7 300 640 290C693.3 280 746.7 287 800 306.3C853.3 325.7 906.7 357.3 933.3 373.2L960 389L960 541L933.3 541C906.7 541 853.3 541 800 541C746.7 541 693.3 541 640 541C586.7 541 533.3 541 480 541C426.7 541 373.3 541 320 541C266.7 541 213.3 541 160 541C106.7 541 53.3 541 26.7 541L0 541Z" fill="#eb5967"></path><path d="M0 381L26.7 395C53.3 409 106.7 437 160 434.8C213.3 432.7 266.7 400.3 320 393.2C373.3 386 426.7 404 480 424.3C533.3 444.7 586.7 467.3 640 463.7C693.3 460 746.7 430 800 415.8C853.3 401.7 906.7 403.3 933.3 404.2L960 405L960 541L933.3 541C906.7 541 853.3 541 800 541C746.7 541 693.3 541 640 541C586.7 541 533.3 541 480 541C426.7 541 373.3 541 320 541C266.7 541 213.3 541 160 541C106.7 541 53.3 541 26.7 541L0 541Z" fill="#fa7268"></path></svg>