<svg id="visual" viewBox="0 0 675 900" width="675" height="900" xmlns="http://www.w3.org/2000/svg" xmlns:xlink="http://www.w3.org/1999/xlink" version="1.1"><path d="M0 91L10.2 109C20.3 127 40.7 163 61.2 170.5C81.7 178 102.3 157 122.8 164.5C143.3 172 163.7 208 184 202C204.3 196 224.7 148 245.2 143.5C265.7 139 286.3 178 306.8 196C327.3 214 347.7 211 368.2 199C388.7 187 409.3 166 429.8 152.5C450.3 139 470.7 133 491 146.5C511.3 160 531.7 193 552.2 200.5C572.7 208 593.3 190 613.8 197.5C634.3 205 654.7 238 664.8 254.5L675 271L675 0L664.8 0C654.7 0 634.3 0 613.8 0C593.3 0 572.7 0 552.2 0C531.7 0 511.3 0 491 0C470.7 0 450.3 0 429.8 0C409.3 0 388.7 0 368.2 0C347.7 0 327.3 0 306.8 0C286.3 0 265.7 0 245.2 0C224.7 0 204.3 0 184 0C163.7 0 143.3 0 122.8 0C102.3 0 81.7 0 61.2 0C40.7 0 20.3 0 10.2 0L0 0Z" fill="#87707a"></path><path d="M0 262L10.2 277C20.3 292 40.7 322 61.2 319C81.7 316 102.3 280 122.8 281.5C143.3 283 163.7 322 184 320.5C204.3 319 224.7 277 245.2 278.5C265.7 280 286.3 325 306.8 337C327.3 349 347.7 328 368.2 320.5C388.7 313 409.3 319 429.8 305.5C450.3 292 470.7 259 491 254.5C511.3 250 531.7 274 552.2 281.5C572.7 289 593.3 280 613.8 289C634.3 298 654.7 325 664.8 338.5L675 352L675 269L664.8 252.5C654.7 236 634.3 203 613.8 195.5C593.3 188 572.7 206 552.2 198.5C531.7 191 511.3 158 491 144.5C470.7 131 450.3 137 429.8 150.5C409.3 164 388.7 185 368.2 197C347.7 209 327.3 212 306.8 194C286.3 176 265.7 137 245.2 141.5C224.7 146 204.3 194 184 200C163.7 206 143.3 170 122.8 162.5C102.3 155 81.7 176 61.2 168.5C40.7 161 20.3 125 10.2 107L0 89Z" fill="#9f8590"></path><path d="M0 433L10.2 443.5C20.3 454 40.7 475 61.2 503.5C81.7 532 102.3 568 122.8 580C143.3 592 163.7 580 184 577C204.3 574 224.7 580 245.2 587.5C265.7 595 286.3 604 306.8 590.5C327.3 577 347.7 541 368.2 553C388.7 565 409.3 625 429.8 625C450.3 625 470.7 565 491 541C511.3 517 531.7 529 552.2 539.5C572.7 550 593.3 559 613.8 550C634.3 541 654.7 514 664.8 500.5L675 487L675 350L664.8 336.5C654.7 323 634.3 296 613.8 287C593.3 278 572.7 287 552.2 279.5C531.7 272 511.3 248 491 252.5C470.7 257 450.3 290 429.8 303.5C409.3 317 388.7 311 368.2 318.5C347.7 326 327.3 347 306.8 335C286.3 323 265.7 278 245.2 276.5C224.7 275 204.3 317 184 318.5C163.7 320 143.3 281 122.8 279.5C102.3 278 81.7 314 61.2 317C40.7 320 20.3 290 10.2 275L0 260Z" fill="#b79ba7"></path><path d="M0 541L10.2 542.5C20.3 544 40.7 547 61.2 580C81.7 613 102.3 676 122.8 694C143.3 712 163.7 685 184 683.5C204.3 682 224.7 706 245.2 709C265.7 712 286.3 694 306.8 671.5C327.3 649 347.7 622 368.2 635.5C388.7 649 409.3 703 429.8 713.5C450.3 724 470.7 691 491 670C511.3 649 531.7 640 552.2 647.5C572.7 655 593.3 679 613.8 667C634.3 655 654.7 607 664.8 583L675 559L675 485L664.8 498.5C654.7 512 634.3 539 613.8 548C593.3 557 572.7 548 552.2 537.5C531.7 527 511.3 515 491 539C470.7 563 450.3 623 429.8 623C409.3 623 388.7 563 368.2 551C347.7 539 327.3 575 306.8 588.5C286.3 602 265.7 593 245.2 585.5C224.7 578 204.3 572 184 575C163.7 578 143.3 590 122.8 578C102.3 566 81.7 530 61.2 501.5C40.7 473 20.3 452 10.2 441.5L0 431Z" fill="#c2aab4"></path><path d="M0 901L10.2 901C20.3 901 40.7 901 61.2 901C81.7 901 102.3 901 122.8 901C143.3 901 163.7 901 184 901C204.3 901 224.7 901 245.2 901C265.7 901 286.3 901 306.8 901C327.3 901 347.7 901 368.2 901C388.7 901 409.3 901 429.8 901C450.3 901 470.7 901 491 901C511.3 901 531.7 901 552.2 901C572.7 901 593.3 901 613.8 901C634.3 901 654.7 901 664.8 901L675 901L675 557L664.8 581C654.7 605 634.3 653 613.8 665C593.3 677 572.7 653 552.2 645.5C531.7 638 511.3 647 491 668C470.7 689 450.3 722 429.8 711.5C409.3 701 388.7 647 368.2 633.5C347.7 620 327.3 647 306.8 669.5C286.3 692 265.7 710 245.2 707C224.7 704 204.3 680 184 681.5C163.7 683 143.3 710 122.8 692C102.3 674 81.7 611 61.2 578C40.7 545 20.3 542 10.2 540.5L0 539Z" fill="#cdb9c2"></path></svg>